<svg width="30" height="30" viewBox="0 0 30 30" fill="#7A7D86" xmlns="http://www.w3.org/2000/svg">
<path d="M6.00012 25.5H8.10012V27.6C8.10012 28.2366 8.35298 28.847 8.80307 29.2971C9.25315 29.7472 9.8636 30 10.5001 30C11.1366 30 11.7471 29.7472 12.1972 29.2971C12.6473 28.847 12.9001 28.2366 12.9001 27.6V25.5H17.1001V27.6C17.1001 28.2366 17.353 28.847 17.8031 29.2971C18.2532 29.7472 18.8636 30 19.5001 30C20.1366 30 20.7471 29.7472 21.1972 29.2971C21.6473 28.847 21.9001 28.2366 21.9001 27.6V25.5H24.0001V12.3H6.00012V25.5Z" fill="#7A7D86"/>
<path d="M24.3692 0.162005C24.1873 0.0553156 23.9801 -0.000628143 23.7692 5.32044e-06C23.5588 0.000221166 23.3521 0.0557711 23.1699 0.161082C22.9877 0.266394 22.8364 0.417763 22.7312 0.600005L20.9312 3.72901C19.2908 2.2943 17.1855 1.50354 15.0062 1.50354C12.8269 1.50354 10.7216 2.2943 9.08119 3.72901L7.26919 0.600005C7.16398 0.417763 7.01268 0.266394 6.8305 0.161082C6.64831 0.0557711 6.44163 0.000221166 6.23119 5.32044e-06C6.02031 -0.000628143 5.81311 0.0553156 5.63119 0.162005C5.35561 0.320835 5.15435 0.582583 5.07166 0.889727C4.98897 1.19687 5.0316 1.52428 5.19019 1.80001L7.41919 5.65801C6.48969 7.10164 5.99694 8.78302 6.00019 10.5H24.0002C24.0034 8.78302 23.5107 7.10164 22.5812 5.65801L24.8102 1.80001C24.9688 1.52428 25.0114 1.19687 24.9287 0.889727C24.846 0.582583 24.6448 0.320835 24.3692 0.162005ZM11.5502 8.10001C11.3722 8.10001 11.1982 8.04722 11.0502 7.94833C10.9022 7.84943 10.7868 7.70887 10.7187 7.54442C10.6506 7.37997 10.6328 7.19901 10.6675 7.02442C10.7022 6.84984 10.7879 6.68948 10.9138 6.56361C11.0397 6.43774 11.2 6.35203 11.3746 6.3173C11.5492 6.28257 11.7302 6.3004 11.8946 6.36851C12.0591 6.43663 12.1996 6.55199 12.2985 6.69999C12.3974 6.848 12.4502 7.022 12.4502 7.20001C12.4502 7.4387 12.3554 7.66762 12.1866 7.8364C12.0178 8.00518 11.7889 8.10001 11.5502 8.10001ZM18.4502 8.10001C18.2722 8.10001 18.0982 8.04722 17.9502 7.94833C17.8022 7.84943 17.6868 7.70887 17.6187 7.54442C17.5506 7.37997 17.5328 7.19901 17.5675 7.02442C17.6022 6.84984 17.6879 6.68948 17.8138 6.56361C17.9397 6.43774 18.1 6.35203 18.2746 6.3173C18.4492 6.28257 18.6302 6.3004 18.7946 6.36851C18.9591 6.43663 19.0996 6.55199 19.1985 6.69999C19.2974 6.848 19.3502 7.022 19.3502 7.20001C19.3502 7.4387 19.2554 7.66762 19.0866 7.8364C18.9178 8.00518 18.6889 8.10001 18.4502 8.10001Z" fill="#7A7D86"/>
<path d="M28.1999 12.3C27.7225 12.3 27.2647 12.4897 26.9271 12.8273C26.5895 13.1648 26.3999 13.6227 26.3999 14.1V20.1C26.3999 20.5774 26.5895 21.0353 26.9271 21.3728C27.2647 21.7104 27.7225 21.9 28.1999 21.9C28.6773 21.9 29.1351 21.7104 29.4727 21.3728C29.8103 21.0353 29.9999 20.5774 29.9999 20.1V14.1C29.9999 13.6227 29.8103 13.1648 29.4727 12.8273C29.1351 12.4897 28.6773 12.3 28.1999 12.3Z" fill="#7A7D86"/>
<path d="M1.8 12.3C1.32261 12.3 0.864773 12.4897 0.527208 12.8273C0.189642 13.1648 0 13.6227 0 14.1V20.1C0 20.5774 0.189642 21.0353 0.527208 21.3728C0.864773 21.7104 1.32261 21.9 1.8 21.9C2.27739 21.9 2.73523 21.7104 3.07279 21.3728C3.41036 21.0353 3.6 20.5774 3.6 20.1V14.1C3.6 13.6227 3.41036 13.1648 3.07279 12.8273C2.73523 12.4897 2.27739 12.3 1.8 12.3Z" fill="#7A7D86"/>
</svg>
