<svg width="33" height="30" viewBox="0 0 33 30" fill="#7A7D86" xmlns="http://www.w3.org/2000/svg">
<path d="M30.5069 0H2.18082C0.976974 0 0 0.983106 0 2.19513V22.3151C0 23.5291 0.976974 24.5102 2.18082 24.5102H13.0461C13.0461 24.5102 11.1371 28.9025 5.90681 28.9025V30.0001H9.7493H19.0857H26.225V28.9025C20.8476 28.9025 19.6315 24.5102 19.6315 24.5102H30.5049C31.7067 24.5102 32.6816 23.5291 32.6816 22.3151V2.19513C32.6857 0.983106 31.7087 0 30.5069 0ZM16.3429 24.0585C15.6663 24.0585 15.1186 23.5107 15.1186 22.8342C15.1186 22.1597 15.6663 21.612 16.3429 21.612C17.0173 21.612 17.5671 22.1597 17.5671 22.8342C17.5651 23.5107 17.0173 24.0585 16.3429 24.0585ZM30.3496 20.9498H2.33615V2.33411H30.3516L30.3496 20.9498Z" fill="#7A7D86"/>
<path d="M13.9476 17.3259C14.7509 17.2932 15.0554 16.8047 16.0262 16.8047C16.9991 16.8047 17.271 17.3259 18.1192 17.3095C18.9837 17.2932 19.5315 16.5226 20.0588 15.7521C20.672 14.8569 20.9234 13.9903 20.9397 13.9474C20.9193 13.9371 19.2556 13.2994 19.2372 11.3823C19.2208 9.77579 20.5493 9.00525 20.6066 8.96642C19.8626 7.87703 18.6996 7.72783 18.2868 7.71148C17.3016 7.61133 16.3614 8.29194 15.8586 8.29194C15.3599 8.29194 14.5853 7.72578 13.7678 7.74009C12.6906 7.75644 11.6994 8.36756 11.1434 9.33023C10.0254 11.2719 10.8573 14.1456 11.9467 15.7214C12.4781 16.492 13.1137 17.3565 13.9476 17.3259Z" fill="#7A7D86"/>
<path d="M18.2996 4.64355C17.662 4.67013 16.8914 5.06868 16.4315 5.60418C16.0228 6.0804 15.663 6.83868 15.7591 7.5663C16.4724 7.62149 17.198 7.20454 17.6415 6.66904C18.083 6.1315 18.3814 5.38753 18.2996 4.64355Z" fill="#7A7D86"/>
</svg>
