<svg width="28" height="28" viewBox="0 0 28 28" fill="none" xmlns="http://www.w3.org/2000/svg">
<path d="M14 23.6923C19.353 23.6923 23.6924 19.3529 23.6924 14C23.6924 8.64707 19.353 4.30768 14 4.30768C8.64713 4.30768 4.30774 8.64707 4.30774 14C4.30774 19.3529 8.64713 23.6923 14 23.6923Z" fill="white"/>
<path d="M22.0788 19.1934H18.2537V14L14.0001 18.197L9.74647 14V19.1934H5.92129H5.79889C7.51257 21.8807 10.5421 23.6923 14.0001 23.6923C17.458 23.6923 20.4876 21.9109 22.2013 19.1934H22.0788Z" fill="#4C4C4C"/>
<path d="M7.73215 16.9822V8.99636L14 15.1975L20.2679 8.99636V16.9822H23.1726C23.5089 16.0142 23.6924 14.9858 23.6924 13.8968C23.6924 8.60311 19.3507 4.30768 14 4.30768C8.6494 4.30768 4.30774 8.60311 4.30774 13.8968C4.30774 14.9858 4.49119 16.0142 4.82752 16.9822H7.73215Z" fill="#FF6B01"/>
<path opacity="0.32" d="M27.9241 14.0002C27.9241 21.6915 21.6892 27.9266 13.998 27.9266C6.30673 27.9266 0.0717773 21.6915 0.0717773 14.0002C0.0717773 6.30904 6.30673 0.0740967 13.998 0.0740967C21.6891 0.0740967 27.9241 6.30904 27.9241 14.0002Z" fill="#BEBEBE"/>
</svg>
