<svg width="18" height="14" viewBox="0 0 18 14" fill="none" xmlns="http://www.w3.org/2000/svg">
<path d="M17.4683 1.71327C16.8321 1.99468 16.1574 2.1795 15.4666 2.26161C16.1948 1.82613 16.7397 1.14078 17 0.333272C16.3166 0.739939 15.5675 1.02494 14.7866 1.17911C14.2622 0.617921 13.5669 0.245741 12.8091 0.120426C12.0513 -0.00488923 11.2733 0.123681 10.596 0.48615C9.91881 0.848618 9.38031 1.42468 9.06424 2.12477C8.74818 2.82486 8.67227 3.60976 8.84832 4.35744C7.46257 4.28798 6.10693 3.92787 4.86939 3.30049C3.63185 2.67311 2.54009 1.79248 1.66498 0.715772C1.35522 1.24781 1.19245 1.85263 1.19332 2.46827C1.19332 3.6766 1.80832 4.74411 2.74332 5.36911C2.18999 5.35169 1.64884 5.20226 1.16498 4.93327V4.9766C1.16515 5.78136 1.44362 6.56129 1.95319 7.18415C2.46275 7.80702 3.17205 8.2345 3.96082 8.3941C3.44716 8.5333 2.90857 8.55382 2.38582 8.4541C2.60821 9.1468 3.04166 9.7526 3.62548 10.1867C4.2093 10.6208 4.91426 10.8614 5.64165 10.8749C4.91872 11.4427 4.09096 11.8624 3.20572 12.1101C2.32047 12.3577 1.39509 12.4285 0.482483 12.3183C2.07556 13.3428 3.93006 13.8867 5.82415 13.8849C12.235 13.8849 15.7408 8.57411 15.7408 3.96827C15.7408 3.81827 15.7366 3.66661 15.73 3.51827C16.4124 3.02508 17.0013 2.41412 17.4691 1.71411L17.4683 1.71327Z" fill="white"/>
</svg>
