<svg width="18" height="14" viewBox="0 0 18 14" fill="none" xmlns="http://www.w3.org/2000/svg">
<path d="M16.9525 2.41516C17.3334 3.90016 17.3334 7.00016 17.3334 7.00016C17.3334 7.00016 17.3334 10.1002 16.9525 11.5852C16.7409 12.406 16.1217 13.0518 15.3375 13.2702C13.9134 13.6668 9.00002 13.6668 9.00002 13.6668C9.00002 13.6668 4.08919 13.6668 2.66252 13.2702C1.87502 13.0485 1.25669 12.4035 1.04752 11.5852C0.666687 10.1002 0.666687 7.00016 0.666687 7.00016C0.666687 7.00016 0.666687 3.90016 1.04752 2.41516C1.25919 1.59433 1.87835 0.948496 2.66252 0.730163C4.08919 0.333496 9.00002 0.333496 9.00002 0.333496C9.00002 0.333496 13.9134 0.333496 15.3375 0.730163C16.125 0.951829 16.7434 1.59683 16.9525 2.41516V2.41516ZM7.33335 9.91683L12.3334 7.00016L7.33335 4.0835V9.91683Z" fill="white"/>
</svg>
