<svg width="62" height="62" viewBox="0 0 62 62" fill="none" xmlns="http://www.w3.org/2000/svg">
<circle cx="31" cy="31.0002" r="31" fill="#0C61F7" fill-opacity="0.19"/>
<g opacity="0.8" clip-path="url(#clip0_665_3059)">
<path d="M45.0001 35.9494C45.0001 32.4748 43.0067 29.3739 40.0214 27.8655C39.9286 34.5275 34.5274 39.9288 27.8654 40.0215C29.3737 43.0069 32.4747 45.0002 35.9493 45.0002C37.5784 45.0002 39.1626 44.5663 40.5546 43.7419L44.9605 44.9607L43.7418 40.5547C44.5662 39.1627 45.0001 37.5785 45.0001 35.9494Z" fill="#0C61F7"/>
<path d="M38.3828 27.6917C38.3828 21.7963 33.5868 17.0002 27.6914 17.0002C21.7961 17.0002 17 21.7963 17 27.6917C17 29.613 17.5114 31.4837 18.4825 33.126L17.0393 38.3435L22.257 36.9005C23.8994 37.8716 25.7701 38.3831 27.6914 38.3831C33.5868 38.3831 38.3828 33.587 38.3828 27.6917ZM26.0508 25.2034H24.4102C24.4102 23.394 25.882 21.9221 27.6914 21.9221C29.5008 21.9221 30.9727 23.394 30.9727 25.2034C30.9727 26.1217 30.5839 27.0044 29.9056 27.6248L28.5117 28.9005V30.1799H26.8711V28.1781L28.798 26.4144C29.1423 26.0993 29.332 25.6693 29.332 25.2034C29.332 24.2987 28.5961 23.5627 27.6914 23.5627C26.7867 23.5627 26.0508 24.2987 26.0508 25.2034ZM26.8711 31.8206H28.5117V33.4612H26.8711V31.8206Z" fill="#0C61F7"/>
</g>
<defs>
<clipPath id="clip0_665_3059">
<rect width="28" height="28" fill="white" transform="translate(17 17.0002)"/>
</clipPath>
</defs>
</svg>
