<svg width="96" height="96" viewBox="0 0 96 96" fill="none" xmlns="http://www.w3.org/2000/svg">
<g clip-path="url(#clip0_5_4355)">
<path d="M95.4337 46.2449L88.8075 37.0625L89.9619 25.8024C90.0938 24.5141 89.3848 23.2865 88.2026 22.7578L77.8682 18.1341L73.245 7.79889C72.7161 6.61745 71.4887 5.90852 70.2012 6.03958L58.9358 7.19327L49.7556 0.567591C48.7068 -0.18822 47.2932 -0.18822 46.2443 0.567591L37.0642 7.19308L25.8011 6.03939C24.5186 5.90833 23.2859 6.61727 22.7572 7.79945L18.135 18.1339L7.79979 22.7563C6.6176 23.2852 5.90792 24.5119 6.03973 25.8002L7.19342 37.0648L0.568491 46.2449C-0.18807 47.2931 -0.18807 48.7081 0.567741 49.7562L7.19398 58.9379L6.04104 70.2018C5.90923 71.4901 6.61892 72.7169 7.80035 73.2456L18.1333 77.8673L22.757 88.2032C23.2859 89.3847 24.5186 90.0929 25.8009 89.9625L37.064 88.8096L46.2442 95.4336C46.7686 95.8114 47.3838 96.0004 47.9997 96.0004C48.6149 96.0004 49.2308 95.8114 49.7545 95.4336L58.9369 88.8096L70.2015 89.9618C71.4972 90.0929 72.7167 89.3839 73.2454 88.2017L77.8678 77.8688L88.2023 73.2456C89.3837 72.7167 90.0934 71.4893 89.9616 70.2018L88.8079 58.9379L95.4334 49.7562C96.1896 48.7081 96.1896 47.2931 95.4337 46.2449Z" fill="#478AFF"/>
<path d="M95.4327 46.2443L88.8065 37.0619L89.9609 25.8018C90.0927 24.5135 89.3838 23.2859 88.2016 22.7572L77.8672 18.1334L73.244 7.79826C72.715 6.61683 71.4877 5.90789 70.2001 6.03895L61.0706 6.97364C61.2957 7.21308 61.4892 7.48645 61.6286 7.79826L66.2517 18.1334L76.5862 22.7572C77.7684 23.2861 78.4773 24.5135 78.3455 25.8018L77.191 37.0619L83.8173 46.2443C84.5731 47.2924 84.5731 48.7075 83.8173 49.7556L77.1918 58.9373L78.3455 70.2011C78.4773 71.4887 77.7676 72.7163 76.5862 73.245L66.2517 77.8682L61.6293 88.2011C61.4894 88.5139 61.2961 88.7878 61.0706 89.0272L70.2009 89.9612C71.4965 90.0922 72.716 89.3833 73.2447 88.2011L77.8672 77.8682L88.2016 73.245C89.383 72.7161 90.0927 71.4887 89.9609 70.2011L88.8072 58.9373L95.4327 49.7556C96.1885 48.7075 96.1885 47.2924 95.4327 46.2443Z" fill="#0C61F7"/>
<path d="M25.2845 36.9689H16.4998C15.2568 36.9689 14.2498 37.9759 14.2498 39.2189V56.7823C14.2498 58.0253 15.2568 59.0323 16.4998 59.0323C17.7425 59.0323 18.7497 58.0253 18.7497 56.7823V50.2498H23.5252C24.7681 50.2498 25.7752 49.242 25.7752 47.9999C25.7752 46.7579 24.7681 45.7499 23.5252 45.7499H18.7497V41.4689H25.2845C26.5274 41.4689 27.5345 40.4618 27.5345 39.2189C27.5345 37.9759 26.5274 36.9689 25.2845 36.9689Z" fill="#FEEA3B"/>
<path d="M61.4294 41.4666C62.6723 41.4659 63.6786 40.458 63.6786 39.2151C63.6778 37.9729 62.6708 36.9664 61.4286 36.9664H61.4279L52.6454 36.9687C51.4032 36.9694 50.3961 37.9765 50.3961 39.2187V56.7842C50.3961 57.3803 50.6335 57.9533 51.0554 58.3751C51.4772 58.797 52.0491 59.0344 52.6463 59.0344H52.6471L61.4295 59.0314C62.6725 59.0314 63.6788 58.0236 63.6788 56.7806C63.678 55.5385 62.671 54.5314 61.4288 54.5314H61.428L54.8963 54.5329V50.2498L59.6717 50.2491C60.9139 50.2483 61.921 49.2413 61.921 47.9983C61.921 46.7562 60.9132 45.7491 59.671 45.7491H59.6702L54.8963 45.7499V41.4681L61.4294 41.4666Z" fill="#FEEA3B"/>
<path d="M79.4995 54.5316L72.967 54.5323V50.2498L77.7425 50.2491C78.9854 50.2483 79.9925 49.2413 79.9925 47.9983C79.9925 46.7562 78.9846 45.7484 77.7425 45.7491L72.967 45.7499V41.4681L79.5003 41.4666C80.7432 41.4659 81.7503 40.458 81.7495 39.2151C81.7488 37.9729 80.7417 36.9664 79.4995 36.9664H79.4988L70.7163 36.9687C69.4741 36.9694 68.467 37.9765 68.467 39.2187V56.7821C68.467 57.379 68.7044 57.952 69.1263 58.3738C69.5482 58.7957 70.1208 59.0323 70.7172 59.0323L79.4997 59.0316C80.7426 59.0316 81.7497 58.0238 81.7497 56.7816C81.7497 55.5386 80.7417 54.5316 79.4995 54.5316Z" fill="#FEEA3B"/>
<path d="M40.4435 50.2498H42.9155C44.1584 50.2498 45.1655 49.242 45.1655 47.9999V39.2189C45.1655 37.9759 44.1584 36.9689 42.9155 36.9689H34.1345C32.8916 36.9689 31.8845 37.9759 31.8845 39.2189V56.7823C31.8845 58.0253 32.8916 59.0323 34.1345 59.0323C35.3775 59.0323 36.3845 58.0253 36.3845 56.7823V52.5542L42.2036 58.374C42.6431 58.8135 43.2187 59.0325 43.7945 59.0325C44.3701 59.0325 44.9459 58.8128 45.3854 58.374C46.2644 57.495 46.2644 56.0706 45.3854 55.1918L40.4435 50.2498ZM36.3845 41.4689H40.6655V45.7499H36.3845V41.4689Z" fill="#FEEA3B"/>
</g>
<defs>
<clipPath id="clip0_5_4355">
<rect width="96" height="96" fill="white" transform="translate(-0.000244141)"/>
</clipPath>
</defs>
</svg>
