<svg width="96" height="96" viewBox="0 0 96 96" fill="none" xmlns="http://www.w3.org/2000/svg">
<g clip-path="url(#clip0_5_4349)">
<path d="M14.0625 84.75H42.375V90.375H14.0625V84.75Z" fill="#5A5A5A"/>
<path d="M53.625 84.75H81.9375V90.375H53.625V84.75Z" fill="#444444"/>
<path d="M45.1875 64.6875H50.8125V81.9375H45.1875V64.6875Z" fill="#5A5A5A"/>
<path d="M48 64.6875H50.8125V81.9375H48V64.6875Z" fill="#444444"/>
<path d="M48 79.125C43.3308 79.125 39.5625 82.8933 39.5625 87.5625C39.5625 92.231 43.3308 96 48 96C52.6692 96 56.4375 92.231 56.4375 87.5625C56.4375 82.8933 52.6692 79.125 48 79.125Z" fill="#0C61F7"/>
<path d="M56.4375 87.5625C56.4375 92.231 52.6692 96 48 96V79.125C52.6692 79.125 56.4375 82.8933 56.4375 87.5625Z" fill="#478AFF"/>
<path d="M87.5625 96C82.9102 96 79.125 92.2148 79.125 87.5625C79.125 82.9102 82.9102 79.125 87.5625 79.125C92.2148 79.125 96 82.9102 96 87.5625C96 92.2148 92.2148 96 87.5625 96Z" fill="#0C61F7"/>
<path d="M8.4375 96C3.78516 96 0 92.2148 0 87.5625C0 82.9102 3.78516 79.125 8.4375 79.125C13.0898 79.125 16.875 82.9102 16.875 87.5625C16.875 92.2148 13.0898 96 8.4375 96Z" fill="#0C61F7"/>
<path d="M78.9375 45V61.875C78.9375 69.5815 62.9062 73.125 48 73.125C33.0938 73.125 17.0625 69.5815 17.0625 61.875V45H78.9375Z" fill="#C6E2E7"/>
<path d="M78.9375 45V61.875C78.9375 69.5815 62.9062 73.125 48 73.125V45H78.9375Z" fill="#8EBAC5"/>
<path d="M78.9375 28.125V45C78.9375 52.7065 62.9062 56.25 48 56.25C33.0938 56.25 17.0625 52.7065 17.0625 45V28.125H78.9375Z" fill="#DEECF1"/>
<path d="M78.9375 28.125V45C78.9375 52.7065 62.9062 56.25 48 56.25V28.125H78.9375Z" fill="#A8D3D8"/>
<path d="M78.9375 11.25V28.125C78.9375 35.8315 62.9062 39.375 48 39.375C33.0938 39.375 17.0625 35.8315 17.0625 28.125V11.25H78.9375Z" fill="#C6E2E7"/>
<path d="M78.9375 11.25V28.125C78.9375 35.8315 62.9062 39.375 48 39.375V11.25H78.9375Z" fill="#8EBAC5"/>
<path d="M48 0C33.0938 0 17.0625 3.54346 17.0625 11.25C17.0625 18.9565 33.0938 22.5 48 22.5C62.9062 22.5 78.9375 18.9565 78.9375 11.25C78.9375 3.54346 62.9062 0 48 0Z" fill="#DEECF1"/>
<path d="M78.9375 11.25C78.9375 18.9565 62.9062 22.5 48 22.5V0C62.9062 0 78.9375 3.54346 78.9375 11.25Z" fill="#A8D3D8"/>
</g>
<defs>
<clipPath id="clip0_5_4349">
<rect width="96" height="96" fill="white"/>
</clipPath>
</defs>
</svg>
