<svg width="17" height="17" viewBox="0 0 17 17" fill="none" xmlns="http://www.w3.org/2000/svg">
<path d="M15.5318 12.7542C14.9592 12.1772 13.5724 11.3353 12.8995 10.996C12.0233 10.5546 11.9512 10.5186 11.2625 11.0302C10.8031 11.3717 10.4977 11.6768 9.96004 11.5621C9.42241 11.4474 8.25411 10.8009 7.23113 9.78115C6.20815 8.76142 5.52411 7.55923 5.40909 7.0234C5.29406 6.48757 5.60416 6.18575 5.94239 5.72529C6.41909 5.07623 6.38303 4.96806 5.97557 4.09183C5.65789 3.41033 4.7914 2.0365 4.2123 1.46677C3.59282 0.854856 3.59282 0.963031 3.19365 1.1289C2.86868 1.26563 2.55691 1.43183 2.26226 1.62543C1.68532 2.00873 1.36512 2.32713 1.1412 2.80562C0.917272 3.28412 0.816668 4.4059 1.97307 6.50668C3.12947 8.60745 3.94078 9.68163 5.62003 11.3562C7.29928 13.0308 8.59054 13.9311 10.4782 14.9898C12.8134 16.2977 13.7091 16.0427 14.189 15.8192C14.6689 15.5956 14.9888 15.2783 15.3728 14.7013C15.5669 14.4072 15.7335 14.0958 15.8704 13.771C16.0366 13.3733 16.1448 13.3733 15.5318 12.7542Z" stroke="#D3D3D3" stroke-miterlimit="10"/>
</svg>
