<svg width="17" height="15" viewBox="0 0 17 15" fill="none" xmlns="http://www.w3.org/2000/svg">
<path d="M2.60718 6.02686V13.9286C2.60718 14.0707 2.66362 14.207 2.76408 14.3074C2.86455 14.4079 3.00081 14.4644 3.14289 14.4644H6.35718V9.91078C6.35718 9.69766 6.44184 9.49327 6.59254 9.34257C6.74324 9.19187 6.94763 9.10721 7.16075 9.10721H9.83932C10.0524 9.10721 10.2568 9.19187 10.4075 9.34257C10.5582 9.49327 10.6429 9.69766 10.6429 9.91078V14.4644H13.8572C13.9993 14.4644 14.1355 14.4079 14.236 14.3074C14.3365 14.207 14.3929 14.0707 14.3929 13.9286V6.02686" stroke="#D3D3D3" stroke-linecap="round" stroke-linejoin="round"/>
<path d="M13.3214 4.92171V1.07126H11.7143V3.38153M16 7.49983L8.86462 0.669477C8.69721 0.492691 8.3058 0.490682 8.13538 0.669477L1 7.49983H16Z" stroke="#D3D3D3" stroke-linecap="round" stroke-linejoin="round"/>
</svg>
