<svg width="28" height="28" viewBox="0 0 28 28" fill="none" xmlns="http://www.w3.org/2000/svg">
<path opacity="0.2" d="M14.0001 28C21.732 28 28.0001 21.732 28.0001 14C28.0001 6.26801 21.732 0 14.0001 0C6.26807 0 6.10352e-05 6.26801 6.10352e-05 14C6.10352e-05 21.732 6.26807 28 14.0001 28Z" fill="#2C5F93"/>
<path fill-rule="evenodd" clip-rule="evenodd" d="M12.3525 21.3272L11.1195 18.7651L8.9104 22.2448C9.1027 22.3643 9.29905 22.477 9.49911 22.5829C9.75172 22.7165 10.0103 22.8387 10.2739 22.9489C11.1167 23.2997 12.0051 23.5291 12.9124 23.6303C13.1014 23.6512 13.2919 23.6667 13.4836 23.6772L12.3525 21.3272Z" fill="#7CC245"/>
<path fill-rule="evenodd" clip-rule="evenodd" d="M23.3396 11.4096C23.2779 11.19 23.2084 10.9727 23.131 10.7581L16.3162 16.777L15.3756 17.6073L15.453 18.3747L15.9696 23.4895C16.3065 23.42 16.6395 23.3326 16.9671 23.2277C20.8684 21.9746 23.6924 18.3175 23.6924 14C23.6924 13.1025 23.5677 12.2346 23.3396 11.4096Z" fill="#FCCB32"/>
<path fill-rule="evenodd" clip-rule="evenodd" d="M9.93994 19.1679L11.4436 22.2922L16.6656 17.6804L15.7195 8.31003L9.93994 19.1679Z" fill="#EE3F26"/>
<path fill-rule="evenodd" clip-rule="evenodd" d="M10.6 18.8258L15.5785 9.47311L15.6142 9.82882L16.1471 8.8276L16.1467 8.82275L6.77075 11.7626L10.4814 19.4721L10.707 19.0479L10.6 18.8258Z" fill="#CF3627"/>
<path fill-rule="evenodd" clip-rule="evenodd" d="M11.8953 21.5168L12.9124 23.6297C13.2696 23.67 13.6321 23.6923 14 23.6923C15.0352 23.6923 16.0316 23.5283 16.9672 23.2278L16.3933 17.5449L11.8953 21.5168Z" fill="#F05048"/>
<path fill-rule="evenodd" clip-rule="evenodd" d="M16.3932 17.5444L16.9672 23.2276C20.8684 21.9746 23.6923 18.3175 23.6923 14C23.6923 13.1025 23.5677 12.2346 23.3395 11.4096L16.3932 17.5444Z" fill="#FCCB32"/>
<path fill-rule="evenodd" clip-rule="evenodd" d="M15.0623 4.3668C14.7096 4.32777 14.355 4.30803 14 4.30768C10.543 4.30768 7.51066 6.11917 5.79493 8.8431C5.35931 9.53664 5.01356 10.2827 4.76599 11.0634L7.33949 12.0518L15.578 9.46883L15.5811 9.46786L16.4654 4.62675C16.0047 4.50566 15.5358 4.41877 15.0623 4.3668Z" fill="#2591D4"/>
<path fill-rule="evenodd" clip-rule="evenodd" d="M21.3319 7.66491C20.3885 6.57315 19.2139 5.70516 17.8932 5.12397C17.4309 4.92122 16.9535 4.75503 16.4652 4.62695L15.5808 9.46807L15.5781 9.47311L16.3932 17.5445L23.3395 11.4096C22.9564 10.0279 22.2706 8.74878 21.3319 7.66491Z" fill="#F47F22"/>
<path fill-rule="evenodd" clip-rule="evenodd" d="M10.6 18.8258L7.33949 12.0518L4.76619 11.0634C4.46193 12.0126 4.30727 13.0033 4.30774 14C4.30774 17.4439 6.10528 20.4657 8.81176 22.1851C9.03546 22.3271 9.26477 22.46 9.49913 22.5835L11.154 19.977L10.6 18.8258Z" fill="#4CAA4C"/>
<path fill-rule="evenodd" clip-rule="evenodd" d="M11.8953 21.5168L11.154 19.9767L9.49915 22.5829C9.75175 22.7165 10.0103 22.8387 10.2739 22.9489C11.1168 23.2997 12.0051 23.5291 12.9124 23.6303L11.8953 21.5168Z" fill="#7CC245"/>
<path fill-rule="evenodd" clip-rule="evenodd" d="M17.8931 5.12396C19.2138 5.70515 20.3884 6.57314 21.3318 7.6649L15.5805 9.46805L17.8931 5.12396ZM16.3933 17.5445L15.5786 9.47309L15.5813 9.46805L21.3323 7.6649C22.2707 8.74889 22.9564 10.028 23.3396 11.4096L16.3933 17.5445Z" fill="#F47F22"/>
<path fill-rule="evenodd" clip-rule="evenodd" d="M10.6 18.8258L11.8953 21.5167L16.3933 17.5444L15.5785 9.47308L10.6 18.8258Z" fill="#EE3F26"/>
<path fill-rule="evenodd" clip-rule="evenodd" d="M15.5781 9.46883L15.0629 4.3668C14.71 4.32779 14.3551 4.30805 14 4.30768C10.543 4.30768 7.51065 6.11917 5.79492 8.8431L7.33949 12.0518L15.5781 9.46883Z" fill="#1E85CA"/>
<path fill-rule="evenodd" clip-rule="evenodd" d="M15.5781 9.46884L7.33948 12.0518L10.6 18.8258L15.5785 9.47311L15.5781 9.46884Z" fill="#CF3627"/>
<path fill-rule="evenodd" clip-rule="evenodd" d="M15.5807 9.46805L17.8932 5.12376C16.9938 4.72847 16.0391 4.47319 15.0623 4.36679L15.5776 9.46882L15.5807 9.46805Z" fill="#35A9E1"/>
<path fill-rule="evenodd" clip-rule="evenodd" d="M11.8953 21.5168L12.9124 23.6297C13.2696 23.67 13.6321 23.6923 14 23.6923C15.0352 23.6923 16.0316 23.5283 16.9672 23.2278L16.3933 17.5449L11.8953 21.5168Z" fill="#F05048"/>
<path fill-rule="evenodd" clip-rule="evenodd" d="M16.3932 17.5444L16.9672 23.2276C20.8684 21.9746 23.6923 18.3175 23.6923 14C23.6923 13.1025 23.5677 12.2346 23.3395 11.4096L16.3932 17.5444Z" fill="#FCCB32"/>
<path fill-rule="evenodd" clip-rule="evenodd" d="M10.2739 22.9489C11.1167 23.2997 12.0051 23.5291 12.9124 23.6303L11.8953 21.5173L10.2739 22.9489H10.2739Z" fill="#7CC245"/>
<path fill-rule="evenodd" clip-rule="evenodd" d="M5.79492 8.84311C5.00472 10.0954 4.51392 11.513 4.36066 12.9858L7.33949 12.0518L5.79492 8.84311Z" fill="#0161AD"/>
<path fill-rule="evenodd" clip-rule="evenodd" d="M7.33949 12.0518L4.36066 12.9858C4.32559 13.3227 4.30792 13.6612 4.30774 14C4.30774 17.4438 6.10527 20.4657 8.81175 22.1851L10.6 18.8258L7.33949 12.0518Z" fill="#4CAA4C"/>
<path fill-rule="evenodd" clip-rule="evenodd" d="M10.6 18.8258L8.81177 22.1851C9.27634 22.4811 9.76546 22.7366 10.2738 22.9489L11.8951 21.5167L10.6 18.8258Z" fill="#51B34B"/>
<path fill-rule="evenodd" clip-rule="evenodd" d="M15.7825 6.43881L15.5508 7.11844C17.5699 8.21212 19.527 10.1572 20.5897 11.852L21.2854 11.6424C20.1483 9.78964 18.0005 7.6395 15.7825 6.43881V6.43881Z" fill="#444344"/>
<path fill-rule="evenodd" clip-rule="evenodd" d="M19.1498 4.8642C17.85 4.8642 16.7191 5.57619 16.119 6.63033C16.0401 6.7681 15.9706 6.91111 15.9112 7.05834C15.8962 7.09634 15.8842 7.13549 15.871 7.17446C15.859 7.20974 15.8453 7.24424 15.8344 7.27971C17.6525 8.33811 19.3861 10.0478 20.4247 11.5996C20.4402 11.5936 20.4561 11.5891 20.4714 11.5829C20.5862 11.5351 20.6982 11.4808 20.807 11.4205C20.8897 11.3751 20.9713 11.328 21.05 11.2768C22.0061 10.6546 22.6394 9.5795 22.6394 8.35382C22.6394 6.4266 21.0774 4.8642 19.1498 4.8642Z" fill="#EE3F26"/>
<path fill-rule="evenodd" clip-rule="evenodd" d="M15.871 7.17447C15.859 7.20975 15.8453 7.24425 15.8344 7.27973C17.6525 8.33813 19.3861 10.0479 20.4247 11.5996C20.4402 11.5936 20.4561 11.5891 20.4714 11.5829C20.5862 11.5351 20.6982 11.4809 20.807 11.4205C19.7036 9.87688 17.8138 8.16968 15.871 7.17447V7.17447Z" fill="#C03225"/>
</svg>
