<svg width="29" height="29" viewBox="0 0 29 29" fill="none" xmlns="http://www.w3.org/2000/svg">
<path d="M28.0001 15C28.0001 22.7321 21.7321 29.0002 14.0001 29C6.26807 29.0002 6.10352e-05 22.7321 6.10352e-05 15C6.10352e-05 7.26801 6.26807 1 14.0001 1C21.732 1 28.0001 7.26801 28.0001 15Z" fill="white"/>
<path fill-rule="evenodd" clip-rule="evenodd" d="M0.000294722 14.9756C-0.0439109 22.7177 6.18908 28.9555 13.9693 28.9998C21.661 29.044 27.9382 22.8061 28.0266 15.0641C28.0708 7.32209 21.8379 1.03999 14.0577 0.995748C6.32169 0.951508 0.000294722 7.18937 0.000294722 14.9756ZM13.9693 2.32295C20.9979 2.32295 26.6563 7.98569 26.6563 15.0199C26.6563 22.0098 20.9979 27.6726 14.0135 27.6726C6.98478 27.6726 1.32646 22.0098 1.32646 14.9756C1.32646 7.98569 6.98478 2.32295 13.9693 2.32295Z" fill="#031E6B"/>
<path fill-rule="evenodd" clip-rule="evenodd" d="M14.0871 26.6292C20.3462 26.677 25.4375 21.4641 25.531 15.0076C25.531 8.59904 20.4863 3.38608 14.1806 3.33825C7.96819 3.29043 2.87686 8.40774 2.78344 14.8642C2.69002 21.2728 7.73465 26.5336 14.0871 26.6292ZM14.1077 23.1826C18.5143 23.2162 22.0988 19.5461 22.1646 15.0006C22.1646 10.4887 18.613 6.81856 14.1735 6.78489C9.79972 6.75122 6.21524 10.354 6.14947 14.8996C6.0837 19.4114 9.6353 23.1152 14.1077 23.1826Z" fill="#DB9A1E"/>
<path fill-rule="evenodd" clip-rule="evenodd" d="M14.115 21.8555C17.8087 21.8837 20.8132 18.8074 20.8684 14.9973C20.8684 11.2153 17.8914 8.13898 14.1701 8.11076C10.504 8.08254 7.49943 11.1024 7.4443 14.9126C7.38917 18.6945 10.3662 21.7991 14.115 21.8555ZM14.1223 20.5804C17.1308 20.6034 19.578 18.0977 19.6229 14.9943C19.6229 11.914 17.1982 9.40828 14.1672 9.38529C11.1812 9.3623 8.73394 11.822 8.68903 14.9254C8.64413 18.0058 11.0689 20.5344 14.1223 20.5804Z" fill="#0F2B71"/>
<path fill-rule="evenodd" clip-rule="evenodd" d="M9.96044 11.0602L9.9675 11.0603C9.95543 11.0757 9.9502 11.0819 9.94954 11.0814C9.94882 11.0809 9.95341 11.0727 9.96044 11.0602ZM10.0291 11.0606L10.0288 10.9807C9.99952 11.0189 9.9799 11.0445 9.9675 11.0603C9.98805 11.0605 10.0086 11.0606 10.0291 11.0606ZM10.0291 11.0606C10.0297 11.2041 10.0316 11.352 10.0334 11.4999L10.0334 11.4999C10.0356 11.6753 10.0377 11.8507 10.038 12.019C10.0254 12.0836 10.0609 12.1047 10.1167 12.0898C10.1635 12.0893 10.2113 12.0884 10.2601 12.0876H10.2601C10.46 12.0842 10.6753 12.0806 10.8956 12.0954C11.1696 12.1138 11.3779 12.3335 11.3834 12.5769C11.4466 14.1518 11.4742 15.7056 11.5019 17.2594C11.5276 17.4668 11.3908 17.6259 11.1524 17.6286C10.9494 17.6523 10.711 17.655 10.5004 17.6502C10.4167 17.6726 10.3888 17.6801 10.3839 17.7732C10.3614 18.0242 10.3187 18.3111 10.276 18.5981C10.2634 18.6627 10.2559 18.7182 10.2484 18.7738C10.2408 18.8294 10.2333 18.885 10.2207 18.9496C10.9361 18.9416 11.6236 18.941 12.3111 18.9405C12.3201 18.974 12.3169 19.0002 12.3142 19.0219C12.3123 19.0373 12.3107 19.0504 12.3139 19.0622C12.2968 19.5566 12.3153 20.072 12.3339 20.5875C12.3213 20.6521 12.3289 20.6806 12.4203 20.6868C12.7145 20.6691 13.0088 20.6515 13.3107 20.6625C13.3912 20.6679 13.3948 20.6463 13.4031 20.597C13.4043 20.5903 13.4055 20.5831 13.407 20.5754C13.4004 20.4394 13.4008 20.3016 13.4013 20.1637C13.4017 20.0258 13.4021 19.888 13.3956 19.752C13.3891 19.616 13.3895 19.4781 13.3899 19.3402C13.3903 19.2023 13.3908 19.0645 13.3842 18.9285C13.6506 18.9183 13.889 18.9157 14.1274 18.913H14.1275C14.1733 18.9228 14.1755 18.9443 14.1789 18.9769C14.1803 18.9895 14.1818 19.0038 14.186 19.0198C14.169 19.5141 14.1875 20.0296 14.206 20.545C14.1935 20.6096 14.2011 20.6382 14.2924 20.6443C14.4256 20.6392 14.5677 20.6394 14.7098 20.6396C14.8518 20.6398 14.9939 20.64 15.1271 20.6349C15.2752 20.6538 15.2746 20.6285 15.2719 20.5196L15.2715 20.5044C15.2661 20.261 15.2587 20.0104 15.2514 19.7598V19.7598L15.2514 19.7596C15.244 19.5091 15.2367 19.2586 15.2312 19.0152C15.2362 18.922 15.2843 18.8785 15.3756 18.8847C15.9565 18.8209 16.5297 18.7285 17.0925 18.4859C17.5236 18.3091 17.8605 18.0046 18.0679 17.551C18.2347 17.1696 18.2824 16.7895 18.2868 16.3597C18.2863 16.0231 18.2224 15.6729 18.0824 15.3737C17.8637 15.0037 17.5563 14.7494 17.1527 14.582C17.0855 14.5541 17.0201 14.5334 16.9547 14.5126L16.9547 14.5126C16.8894 14.4918 16.824 14.4711 16.7568 14.4432C16.7894 14.4344 16.8099 14.4185 16.8269 14.4052L16.8269 14.4052C16.8389 14.3958 16.8491 14.3878 16.8607 14.3847C17.0609 14.2393 17.2534 14.0652 17.3749 13.849C17.5368 13.5607 17.5719 13.2452 17.5714 12.9086C17.5605 12.4217 17.4102 11.9722 17.0443 11.6111C16.7725 11.3778 16.4602 11.2166 16.1354 11.1199L15.1 10.9382C15.0087 10.932 14.9732 10.9109 14.9781 10.8178C14.9956 10.66 14.9853 10.5098 14.9749 10.3595V10.3595C14.9667 9.9943 14.9586 9.62914 14.9428 9.23542C14.9288 9.23916 14.9199 9.23389 14.9111 9.22862V9.22862C14.9022 9.22334 14.8933 9.21807 14.8793 9.22181C14.7372 9.22032 14.6018 9.22274 14.4694 9.2251C14.2946 9.22823 14.1252 9.23125 13.9534 9.22503C13.8899 9.21141 13.8697 9.24745 13.885 9.30457L13.8931 9.66973C13.881 10.0709 13.8892 10.4361 13.905 10.8298C13.8983 10.8418 13.8924 10.857 13.8865 10.8722C13.8747 10.9026 13.8629 10.9329 13.8443 10.9379C13.725 10.9393 13.5988 10.9425 13.4726 10.9457C13.3464 10.9489 13.2202 10.9521 13.101 10.9534C13.1136 10.8888 13.1059 10.8603 13.0983 10.8317C13.0928 10.5883 13.0855 10.3377 13.0781 10.0871C13.0708 9.83651 13.0634 9.58593 13.058 9.34249C13.0706 9.27789 13.0629 9.24933 12.9716 9.24319C12.6773 9.26081 12.411 9.27096 12.1091 9.26002C12.0177 9.25388 11.9975 9.28992 11.9926 9.38308C12.0018 9.6408 12.0092 9.89138 12.0165 10.142C12.0239 10.3925 12.0312 10.6431 12.0405 10.9008C12.0355 10.994 12.0153 11.03 11.924 11.0239C11.7591 11.0222 11.5961 11.0276 11.4331 11.033C11.2701 11.0384 11.1071 11.0438 10.9422 11.0421C10.7773 11.0403 10.6143 11.0457 10.4513 11.0511C10.311 11.0558 10.1706 11.0605 10.0291 11.0606ZM13.2618 17.1588L13.2618 17.1587C13.2551 16.9107 13.2486 16.6682 13.2511 16.4233C13.2408 16.2731 13.2393 16.128 13.2378 15.983V15.983C13.2363 15.838 13.2348 15.693 13.2245 15.5427L13.2256 15.5195C13.2288 15.4448 13.2298 15.4216 13.3131 15.4272L13.365 15.424C13.9378 15.3896 14.535 15.3536 15.0967 15.5003C15.3581 15.5833 15.6195 15.6663 15.8202 15.8574C16.2495 16.2322 16.2177 17.006 15.7336 17.3194C15.4573 17.5159 15.1505 17.5981 14.8081 17.6592C14.4017 17.7423 13.9735 17.7441 13.5633 17.7458H13.5632H13.5631C13.487 17.7462 13.4115 17.7465 13.3368 17.7473C13.3368 17.7473 13.3013 17.7262 13.2734 17.7337C13.272 17.5365 13.2669 17.3461 13.2618 17.1588ZM13.9191 14.34C14.2204 14.3092 14.5122 14.2793 14.8359 14.1926C14.8917 14.1776 15.0236 14.1117 15.1275 14.0532C15.6269 13.797 15.7375 13.0939 15.3284 12.6831C15.1201 12.4634 14.8231 12.3593 14.5414 12.3123C14.1916 12.2589 13.8566 12.2604 13.5062 12.262C13.4193 12.2624 13.3316 12.2629 13.2424 12.2624C13.1511 12.2563 13.1309 12.2923 13.1259 12.3855C13.1472 13.0227 13.1608 13.6313 13.1541 14.2759C13.1415 14.3405 13.1771 14.3616 13.2405 14.3752C13.3001 14.3745 13.3528 14.3757 13.4054 14.3769C13.458 14.3781 13.5107 14.3793 13.5703 14.3787C13.6894 14.3635 13.8049 14.3517 13.9191 14.34Z" fill="#122C73"/>
</svg>
