<svg width="96" height="96" viewBox="0 0 96 96" fill="none" xmlns="http://www.w3.org/2000/svg">
<g clip-path="url(#clip0_5_4343)">
<path d="M66.2838 22.2333L39.8816 60.4915L36.14 91.0983L75.2377 95.999L81.7497 41.9151L66.2838 22.2333Z" fill="#FF641A"/>
<path d="M93.5319 2.40244C92.0512 0.921748 90.0129 0.101061 87.9266 0.00956063C85.656 -0.0900019 83.3285 0.674623 81.6007 2.40244L62.0842 21.9834L64.0185 23.9177L66.0613 25.9605L71.8569 20.0985C77.3559 23.7341 84.7858 23.0799 89.5549 18.3109L93.5319 14.3338C96.8224 11.0432 96.8224 5.69287 93.5319 2.40244ZM89.5549 10.3566L85.5778 14.3336C82.9822 16.9292 79.1096 17.4784 75.9729 15.9816L85.5778 6.3795C86.6763 5.28094 88.4563 5.28094 89.5549 6.3795C90.6508 7.47544 90.6508 9.26062 89.5549 10.3566Z" fill="#516373"/>
<path d="M71.8569 20.0983C77.3559 23.7339 84.7857 23.0797 89.5548 18.3106L93.5319 14.3336C96.8223 11.0431 96.8223 5.69283 93.5319 2.4024C92.0512 0.921709 90.0129 0.101021 87.9266 0.00952148L64.0184 23.9176L66.0612 25.9605L71.8569 20.0983ZM85.5779 6.37946C86.6765 5.2809 88.4564 5.2809 89.555 6.37946C90.6509 7.4754 90.6509 9.26058 89.555 10.3565L85.5779 14.3336C82.9824 16.9291 79.1097 17.4783 75.9731 15.9815L85.5779 6.37946Z" fill="#3E4D59"/>
<path d="M66.7469 21.1865H39.0431L-0.000244141 60.0943L13.9209 74.0154L27.8418 87.9365L66.7498 49.0014V21.1865H66.7469Z" fill="#FFE680"/>
<path d="M66.7498 49.0014V21.1865L13.9209 74.0154L27.8418 87.9365L66.7498 49.0014Z" fill="#FFC550"/>
<path d="M52.1388 39.8801L50.0975 37.8388L48.1617 35.9031L43.7823 40.2825C40.6537 38.8089 36.8293 39.2858 34.2421 41.8686C30.9697 45.141 30.9532 50.4516 34.1896 53.7465C35.4211 55.0005 35.2721 56.7495 34.2421 57.7794C33.1544 58.8671 31.3381 58.9091 30.2139 57.7223C29.1719 56.6222 29.1873 54.8801 30.2651 53.8024L26.2826 49.8253C23.7043 52.4102 23.2271 56.2337 24.7008 59.3638L20.3197 63.7449L22.2555 65.6807L24.2968 67.722L28.6758 63.3429C32.324 65.0664 35.9313 64.0444 38.2192 61.7565C41.2462 58.7295 41.7866 53.5958 38.1682 49.7681C37.1263 48.6656 37.1416 46.9262 38.2192 45.8484C39.2945 44.7677 41.0433 44.7551 42.1407 45.7956C43.3021 46.8969 43.301 48.7179 42.1962 49.8255L46.1733 53.8026C48.7586 51.2173 49.2371 47.3914 47.7601 44.2588L52.1388 39.8801Z" fill="#FF7B4A"/>
<path d="M42.1961 49.8254L46.1732 53.8025C48.7585 51.2172 49.237 47.3913 47.76 44.2587L52.1387 39.8801L50.0974 37.8387L42.1406 45.7955C43.3018 46.8969 43.3009 48.7179 42.1961 49.8254Z" fill="#FF435B"/>
<path d="M28.6757 63.343C32.3239 65.0665 35.9313 64.0444 38.2191 61.7566C41.2461 58.7296 41.7865 53.5958 38.1681 49.7682L34.1896 53.7468C35.4211 55.0009 35.272 56.7498 34.2421 57.7797C33.1544 58.8674 31.3381 58.9094 30.2138 57.7225L22.2554 65.6809L24.2967 67.7223L28.6757 63.343Z" fill="#FF435B"/>
</g>
<defs>
<clipPath id="clip0_5_4343">
<rect width="96" height="96" fill="white" transform="translate(-0.000244141)"/>
</clipPath>
</defs>
</svg>
