<svg width="147" height="34" viewBox="0 0 147 34" fill="none" xmlns="http://www.w3.org/2000/svg">
<path d="M17.768 33.46C15.376 33.46 13.1373 33.046 11.052 32.218C8.96667 31.3593 7.142 30.1787 5.578 28.676C4.04467 27.1733 2.83333 25.4253 1.944 23.432C1.08533 21.408 0.656 19.2307 0.656 16.9C0.656 14.5387 1.08533 12.3613 1.944 10.368C2.83333 8.344 4.06 6.58066 5.624 5.078C7.188 3.57533 8.99733 2.41 11.052 1.582C13.1373 0.723332 15.376 0.293999 17.768 0.293999C19.5467 0.293999 21.264 0.539332 22.92 1.03C24.576 1.52067 26.1093 2.21067 27.52 3.1C28.9613 3.98933 30.188 5.06266 31.2 6.32L26.692 10.782C25.5267 9.34067 24.1773 8.252 22.644 7.516C21.1413 6.78 19.516 6.412 17.768 6.412C16.3267 6.412 14.9773 6.688 13.72 7.24C12.4627 7.76133 11.374 8.49733 10.454 9.448C9.534 10.368 8.81333 11.472 8.292 12.76C7.77067 14.0173 7.51 15.3973 7.51 16.9C7.51 18.372 7.77067 19.752 8.292 21.04C8.81333 22.2973 9.54933 23.4013 10.5 24.352C11.4507 25.272 12.5547 25.9927 13.812 26.514C15.1 27.0353 16.4953 27.296 17.998 27.296C19.6847 27.296 21.264 26.9433 22.736 26.238C24.208 25.5327 25.5113 24.5207 26.646 23.202L31.016 27.526C30.004 28.7527 28.7927 29.8107 27.382 30.7C25.9713 31.5893 24.438 32.2793 22.782 32.77C21.1567 33.23 19.4853 33.46 17.768 33.46ZM50.4797 33.506C48.0877 33.506 45.8644 33.092 43.8097 32.264C41.7551 31.4053 39.9457 30.2247 38.3817 28.722C36.8484 27.1887 35.6371 25.4253 34.7477 23.432C33.8891 21.408 33.4597 19.2307 33.4597 16.9C33.4597 14.5693 33.8891 12.4073 34.7477 10.414C35.6371 8.39 36.8484 6.62667 38.3817 5.124C39.9457 3.59067 41.7551 2.41 43.8097 1.582C45.8644 0.723332 48.0877 0.293999 50.4797 0.293999C52.8718 0.293999 55.0951 0.723332 57.1497 1.582C59.2351 2.41 61.0444 3.59067 62.5778 5.124C64.1418 6.62667 65.3531 8.39 66.2118 10.414C67.0704 12.4073 67.4998 14.5693 67.4998 16.9C67.4998 19.2307 67.0704 21.408 66.2118 23.432C65.3531 25.4253 64.1418 27.1887 62.5778 28.722C61.0444 30.2247 59.2351 31.4053 57.1497 32.264C55.0951 33.092 52.8718 33.506 50.4797 33.506ZM50.4797 27.388C51.9518 27.388 53.3011 27.1273 54.5277 26.606C55.7544 26.054 56.8278 25.318 57.7477 24.398C58.6678 23.4473 59.3884 22.328 59.9097 21.04C60.4311 19.752 60.6918 18.372 60.6918 16.9C60.6918 15.3973 60.4311 14.0173 59.9097 12.76C59.3884 11.472 58.6678 10.368 57.7477 9.448C56.8278 8.49733 55.7544 7.76133 54.5277 7.24C53.3011 6.688 51.9518 6.412 50.4797 6.412C49.0384 6.412 47.7044 6.688 46.4777 7.24C45.2511 7.76133 44.1777 8.49733 43.2577 9.448C42.3377 10.368 41.6171 11.472 41.0957 12.76C40.5744 14.0173 40.3137 15.382 40.3137 16.854C40.3137 18.3567 40.5744 19.752 41.0957 21.04C41.6171 22.328 42.3377 23.4473 43.2577 24.398C44.1777 25.318 45.2511 26.054 46.4777 26.606C47.7044 27.1273 49.0384 27.388 50.4797 27.388ZM72.5817 33V0.799998H79.2517V33H72.5817ZM85.5749 33V0.799998H91.9229L107.931 21.592V0.799998H114.187V33H108.299L91.8769 11.472V33H85.5749Z" fill="#F8F8F8"/>
<path d="M129.276 33V6.688H118.42V0.799998H146.756V6.688H135.946V33H129.276Z" fill="#0C61F7"/>
</svg>
