<svg width="27" height="31" viewBox="0 0 27 31" fill="#7A7D86" xmlns="http://www.w3.org/2000/svg">
<path d="M19.3384 7.11133C16.6039 7.11133 15.4483 8.41616 13.544 8.41616C11.5915 8.41616 10.1022 7.12082 7.73259 7.12082C5.4132 7.12082 2.93986 8.53687 1.36918 10.9492C-0.836276 14.351 -0.461918 20.7578 3.11008 26.2158C4.38778 28.1697 6.0941 30.3609 8.33211 30.3846H8.3728C10.3178 30.3846 10.8956 29.111 13.5724 29.0961H13.6131C16.2499 29.0961 16.7789 30.3771 18.7158 30.3771H18.7565C20.9945 30.3534 22.7924 27.9255 24.0701 25.9791C24.9897 24.5793 25.3315 23.8767 26.0368 22.2932C20.8697 20.3319 20.0396 13.0068 25.1497 10.1984C23.5899 8.24525 21.398 7.11404 19.3316 7.11404L19.3384 7.11133Z" fill="#7A7D86"/>
<path d="M18.736 0C17.1083 0.110544 15.2094 1.14681 14.0972 2.49979C13.0881 3.72595 12.258 5.54484 12.5835 7.3088H12.7137C14.4472 7.3088 16.2213 6.26507 17.2576 4.92769C18.2558 3.65474 19.0127 1.85077 18.736 0Z" fill="#7A7D86"/>
</svg>
