<svg width="147" height="34" viewBox="0 0 147 34" fill="none" xmlns="http://www.w3.org/2000/svg">
<path d="M17.998 27.296C19.6847 27.296 21.264 26.9433 22.736 26.238C24.208 25.5327 25.5113 24.5207 26.646 23.202L31.016 27.526C29.4827 29.3353 27.52 30.7767 25.128 31.85C22.7667 32.9233 20.3287 33.46 17.814 33.46C15.3913 33.46 13.122 33.0307 11.006 32.172C8.92067 31.3133 7.11133 30.148 5.578 28.676C4.04467 27.204 2.83333 25.456 1.944 23.432C1.08533 21.408 0.656 19.2307 0.656 16.9C0.656 14.5693 1.10067 12.392 1.99 10.368C2.87933 8.31333 4.09067 6.55 5.624 5.078C7.15733 3.606 8.96667 2.44067 11.052 1.582C13.168 0.723332 15.422 0.293999 17.814 0.293999C20.39 0.293999 22.8893 0.845999 25.312 1.95C27.7347 3.02333 29.6973 4.48 31.2 6.32L26.692 10.782C25.5573 9.37133 24.2233 8.298 22.69 7.562C21.1567 6.79533 19.5313 6.412 17.814 6.412C16.3727 6.412 15.008 6.688 13.72 7.24C12.4627 7.76133 11.374 8.49733 10.454 9.448C9.534 10.368 8.81333 11.472 8.292 12.76C7.77067 14.0173 7.51 15.3973 7.51 16.9C7.51 18.372 7.77067 19.752 8.292 21.04C8.844 22.2973 9.58 23.386 10.5 24.306C11.4507 25.226 12.5547 25.962 13.812 26.514C15.1 27.0353 16.4953 27.296 17.998 27.296ZM67.3211 16.9C67.3211 19.2 66.8765 21.3773 65.9871 23.432C65.0978 25.456 63.8865 27.2193 62.3531 28.722C60.8505 30.194 59.0565 31.3593 56.9711 32.218C54.8858 33.0767 52.6471 33.506 50.2551 33.506C47.8938 33.506 45.6705 33.0767 43.5851 32.218C41.4998 31.3593 39.6905 30.194 38.1571 28.722C36.6545 27.2193 35.4585 25.456 34.5691 23.432C33.6798 21.3773 33.2351 19.2 33.2351 16.9C33.2351 14.6 33.6798 12.438 34.5691 10.414C35.4585 8.35933 36.6545 6.596 38.1571 5.124C39.6905 3.62133 41.4998 2.44067 43.5851 1.582C45.6705 0.723332 47.8938 0.293999 50.2551 0.293999C52.6471 0.293999 54.8858 0.723332 56.9711 1.582C59.0565 2.44067 60.8505 3.62133 62.3531 5.124C63.8865 6.596 65.0978 8.35933 65.9871 10.414C66.8765 12.438 67.3211 14.6 67.3211 16.9ZM60.4671 16.9C60.4671 15.3973 60.2065 14.0173 59.6851 12.76C59.1638 11.472 58.4431 10.368 57.5231 9.448C56.6338 8.49733 55.5605 7.76133 54.3031 7.24C53.0458 6.688 51.6965 6.412 50.2551 6.412C48.8138 6.412 47.4645 6.688 46.2071 7.24C44.9805 7.76133 43.9071 8.49733 42.9871 9.448C42.0978 10.368 41.3925 11.472 40.8711 12.76C40.3498 14.0173 40.0891 15.3973 40.0891 16.9C40.0891 18.372 40.3498 19.752 40.8711 21.04C41.3925 22.328 42.0978 23.4473 42.9871 24.398C43.9071 25.318 44.9805 26.054 46.2071 26.606C47.4645 27.1273 48.8138 27.388 50.2551 27.388C51.6965 27.388 53.0458 27.1273 54.3031 26.606C55.5605 26.054 56.6338 25.318 57.5231 24.398C58.4431 23.4473 59.1638 22.328 59.6851 21.04C60.2065 19.752 60.4671 18.372 60.4671 16.9ZM72.3571 33V0.799998H79.0271V33H72.3571ZM85.3503 0.799998H91.6983L107.706 21.638V0.799998H113.962V33H108.074L91.6523 11.472V33H85.3503V0.799998Z" fill="#121F3E"/>
<path d="M118.195 6.688V0.799998H146.531V6.688H135.721V33H129.051V6.688H118.195Z" fill="#0C61F7"/>
</svg>
