<svg version="1.2" xmlns="http://www.w3.org/2000/svg" viewBox="0 0 147 34" width="110" height="25">
	<title>logo-svg</title>
	<style>
		.s0 { fill: #ffffff } 
	</style>
	<path id="Layer" fill-rule="evenodd" class="s0" d="m18 27.3q2.5 0 4.7-1.1 2.2-1 3.9-3l4.4 4.3q-2.3 2.7-5.9 4.4-3.5 1.6-7.3 1.6-3.6 0-6.8-1.3-3.1-1.3-5.4-3.5-2.3-2.2-3.7-5.3-1.2-3-1.2-6.5 0-3.5 1.3-6.5 1.3-3.1 3.6-5.3 2.3-2.2 5.5-3.5 3.1-1.3 6.7-1.3 3.9 0 7.5 1.6 3.6 1.7 5.9 4.4l-4.5 4.5q-1.7-2.1-4-3.2-2.3-1.2-4.9-1.2-2.1 0-4.1 0.8-1.9 0.8-3.2 2.2-1.4 1.4-2.2 3.4-0.8 1.8-0.8 4.1 0 2.2 0.8 4.1 0.8 1.9 2.2 3.3 1.4 1.4 3.3 2.2 1.9 0.8 4.2 0.8zm49.3-10.4q0 3.4-1.3 6.5-1.3 3.1-3.6 5.3-2.3 2.2-5.4 3.5-3.2 1.3-6.7 1.3-3.6 0-6.7-1.3-3.1-1.3-5.4-3.5-2.3-2.2-3.6-5.3-1.4-3.1-1.4-6.5 0-3.5 1.4-6.5 1.3-3.1 3.6-5.3 2.3-2.2 5.4-3.5 3.1-1.3 6.7-1.3 3.5 0 6.7 1.3 3.1 1.3 5.4 3.5 2.3 2.2 3.6 5.3 1.3 3 1.3 6.5zm-6.8 0q0-2.3-0.8-4.1-0.8-2-2.2-3.4-1.3-1.4-3.2-2.2-1.9-0.8-4-0.8-2.2 0-4.1 0.8-1.8 0.8-3.2 2.2-1.3 1.4-2.1 3.4-0.8 1.8-0.8 4.1 0 2.2 0.8 4.1 0.8 2 2.1 3.4 1.4 1.4 3.2 2.2 1.9 0.8 4.1 0.8 2.1 0 4-0.8 1.9-0.8 3.2-2.2 1.4-1.4 2.2-3.4 0.8-1.9 0.8-4.1zm11.9 16.1v-32.2h6.6v32.2zm13-32.2h6.4l16 20.8v-20.8h6.2v32.2h-5.9l-16.4-21.5v21.5h-6.3z"/>
	<path id="Layer" class="s0" d="m118.2 6.7v-5.9h28.3v5.9h-10.8v26.3h-6.6v-26.3z"/>
</svg>